<mxfile host="Electron" modified="2023-06-03T02:06:47.973Z" agent="Mozilla/5.0 (Windows NT 10.0; Win64; x64) AppleWebKit/537.36 (KHTML, like Gecko) draw.io/21.2.8 Chrome/112.0.5615.165 Electron/24.2.0 Safari/537.36" etag="yVVgwUH4Xgyy-LcBMx_2" version="21.2.8" type="device">
  <diagram name="Page-1" id="Soe3krxVtmguFbCWW-TW">
    <mxGraphModel dx="603" dy="1599" grid="1" gridSize="10" guides="1" tooltips="1" connect="1" arrows="1" fold="1" page="1" pageScale="1" pageWidth="1169" pageHeight="827" math="0" shadow="0">
      <root>
        <mxCell id="0" />
        <mxCell id="1" parent="0" />
        <mxCell id="dFYcfj9fINWe9SlfznK4-1" value="" style="rounded=0;whiteSpace=wrap;html=1;" vertex="1" parent="1">
          <mxGeometry x="40" y="-630" width="650" height="540" as="geometry" />
        </mxCell>
        <mxCell id="dFYcfj9fINWe9SlfznK4-2" value="Root" style="rounded=0;whiteSpace=wrap;html=1;" vertex="1" parent="1">
          <mxGeometry x="55" y="-613" width="620" height="43" as="geometry" />
        </mxCell>
        <mxCell id="dFYcfj9fINWe9SlfznK4-3" value="Header" style="rounded=0;whiteSpace=wrap;html=1;" vertex="1" parent="1">
          <mxGeometry x="100" y="-550" width="530" height="43" as="geometry" />
        </mxCell>
        <mxCell id="dFYcfj9fINWe9SlfznK4-4" value="Shopping List" style="rounded=0;whiteSpace=wrap;html=1;fillColor=#26FF9A;" vertex="1" parent="1">
          <mxGeometry x="100" y="-490" width="215" height="43" as="geometry" />
        </mxCell>
        <mxCell id="dFYcfj9fINWe9SlfznK4-5" value="Recipe Book" style="rounded=0;whiteSpace=wrap;html=1;fillColor=#FF7A7A;" vertex="1" parent="1">
          <mxGeometry x="415" y="-490" width="215" height="43" as="geometry" />
        </mxCell>
        <mxCell id="dFYcfj9fINWe9SlfznK4-6" value="Shopping List (Edit)" style="rounded=0;whiteSpace=wrap;html=1;" vertex="1" parent="1">
          <mxGeometry x="100" y="-370" width="215" height="43" as="geometry" />
        </mxCell>
        <mxCell id="dFYcfj9fINWe9SlfznK4-9" value="Feature" style="rounded=0;whiteSpace=wrap;html=1;" vertex="1" parent="1">
          <mxGeometry x="510" y="-140" width="150" height="43" as="geometry" />
        </mxCell>
        <mxCell id="dFYcfj9fINWe9SlfznK4-10" value="Component" style="rounded=0;whiteSpace=wrap;html=1;" vertex="1" parent="1">
          <mxGeometry x="340" y="-140" width="150" height="43" as="geometry" />
        </mxCell>
        <mxCell id="dFYcfj9fINWe9SlfznK4-11" value="Recipe List" style="rounded=0;whiteSpace=wrap;html=1;" vertex="1" parent="1">
          <mxGeometry x="415" y="-430" width="215" height="43" as="geometry" />
        </mxCell>
        <mxCell id="dFYcfj9fINWe9SlfznK4-12" value="Recipe Item" style="rounded=0;whiteSpace=wrap;html=1;" vertex="1" parent="1">
          <mxGeometry x="415" y="-370" width="215" height="43" as="geometry" />
        </mxCell>
        <mxCell id="dFYcfj9fINWe9SlfznK4-13" value="Shopping List" style="rounded=0;whiteSpace=wrap;html=1;" vertex="1" parent="1">
          <mxGeometry x="100" y="-430" width="215" height="43" as="geometry" />
        </mxCell>
        <mxCell id="dFYcfj9fINWe9SlfznK4-14" value="Recipe Detail" style="rounded=0;whiteSpace=wrap;html=1;" vertex="1" parent="1">
          <mxGeometry x="415" y="-310" width="215" height="43" as="geometry" />
        </mxCell>
        <mxCell id="dFYcfj9fINWe9SlfznK4-15" value="Ingredient" style="rounded=0;whiteSpace=wrap;html=1;" vertex="1" parent="1">
          <mxGeometry x="100" y="-310" width="215" height="43" as="geometry" />
        </mxCell>
        <mxCell id="dFYcfj9fINWe9SlfznK4-16" value="Design" style="rounded=0;whiteSpace=wrap;html=1;" vertex="1" parent="1">
          <mxGeometry x="415" y="-250" width="215" height="43" as="geometry" />
        </mxCell>
        <mxCell id="dFYcfj9fINWe9SlfznK4-18" value="Model" style="rounded=0;whiteSpace=wrap;html=1;" vertex="1" parent="1">
          <mxGeometry x="165" y="-140" width="150" height="43" as="geometry" />
        </mxCell>
      </root>
    </mxGraphModel>
  </diagram>
</mxfile>
